<?xml version="1.0" standalone="no"?>
<!DOCTYPE svg PUBLIC "-//W3C//DTD SVG 20010904//EN"
 "http://www.w3.org/TR/2001/REC-SVG-20010904/DTD/svg10.dtd">
<svg version="1.0" xmlns="http://www.w3.org/2000/svg"
 width="512.000000pt" height="512.000000pt" viewBox="0 0 512.000000 512.000000"
 preserveAspectRatio="xMidYMid meet">

<g transform="translate(0.000000,512.000000) scale(0.100000,-0.100000)"
fill="#000000" stroke="none">
<path d="M2228 4640 c-305 -52 -472 -239 -429 -481 9 -47 31 -106 64 -172 40
-81 47 -103 36 -109 -101 -59 -220 -138 -304 -201 -195 -145 -420 -380 -552
-574 l-56 -82 -96 92 c-126 120 -207 181 -310 230 -72 35 -95 41 -167 45 -79
4 -89 3 -149 -27 -128 -63 -207 -216 -246 -476 -18 -121 -18 -529 0 -650 39
-260 118 -413 246 -476 60 -29 70 -31 147 -27 68 3 97 11 158 39 95 43 208
127 325 240 l92 89 56 -83 c132 -194 357 -429 552 -574 84 -63 203 -142 304
-201 11 -6 4 -28 -36 -109 -104 -207 -92 -373 36 -501 101 -101 242 -151 452
-159 391 -16 790 137 1107 424 71 64 82 71 142 82 437 83 826 283 1101 568
286 297 435 681 416 1077 -17 364 -155 679 -416 949 -264 273 -623 465 -1033
552 -68 14 -128 29 -134 33 -7 4 -52 42 -100 86 -291 257 -677 408 -1037 405
-67 -1 -143 -5 -169 -9z m326 -149 c29 -6 29 -6 -25 -31 -154 -71 -341 -226
-450 -373 l-59 -78 -20 33 c-25 40 -60 150 -60 187 0 121 106 218 275 254 71
16 283 20 339 8z m435 -132 c92 -43 263 -147 275 -167 2 -4 -73 -8 -167 -8
-263 -2 -509 -41 -754 -119 -59 -19 -109 -32 -111 -30 -9 8 107 120 182 177
129 97 396 216 451 201 11 -3 67 -27 124 -54z m372 -335 c12 -3 2 -38 -59
-192 -85 -213 -97 -270 -61 -296 31 -21 72 -20 97 2 10 9 33 58 50 108 31 89
123 315 141 343 8 12 25 10 107 -9 55 -12 120 -29 145 -36 l47 -14 -60 -130
c-109 -240 -186 -503 -230 -785 -29 -189 -36 -577 -14 -785 36 -337 120 -646
256 -937 l48 -102 -31 -10 c-42 -14 -239 -61 -253 -61 -17 0 -108 211 -164
380 -121 363 -165 651 -164 1070 0 274 12 403 54 632 23 120 18 148 -30 168
-42 17 -86 -9 -99 -58 -16 -58 -48 -254 -62 -382 -20 -172 -17 -601 5 -780 42
-344 128 -673 250 -950 42 -96 43 -100 23 -106 -77 -24 -644 8 -673 39 -7 6
-34 53 -61 102 -155 281 -246 567 -300 940 -27 186 -24 611 5 805 28 180 81
397 135 549 40 114 197 440 221 460 16 13 128 30 264 41 101 8 379 4 413 -6z
m-881 -78 c0 -2 -27 -59 -59 -127 -262 -547 -338 -1254 -205 -1898 45 -221
133 -480 224 -660 22 -46 39 -85 37 -87 -6 -6 -250 79 -327 114 l-65 29 -52
154 c-29 85 -59 183 -68 219 -35 142 -35 140 -68 156 -40 19 -82 6 -99 -31
-13 -29 2 -107 54 -274 15 -52 27 -99 26 -103 -5 -13 -179 109 -288 200 -230
192 -468 490 -593 741 -41 82 -42 88 -42 181 0 93 1 99 42 181 128 259 386
575 628 771 83 67 247 180 253 174 2 -3 -8 -42 -22 -88 -119 -395 -172 -838
-146 -1238 16 -258 25 -310 56 -337 28 -26 60 -29 86 -9 28 21 36 57 27 121
-4 33 -13 142 -20 242 -27 441 50 959 202 1354 l29 76 88 37 c79 33 276 103
295 105 4 1 7 -1 7 -3z m1602 -115 c462 -214 771 -579 864 -1021 20 -91 26
-370 11 -442 -9 -45 -20 -47 -142 -23 -86 16 -115 9 -134 -32 -15 -33 -14 -47
8 -75 20 -25 66 -39 174 -53 26 -3 47 -10 47 -14 0 -11 -44 -119 -75 -185 -98
-206 -311 -436 -540 -581 -72 -46 -260 -141 -297 -150 -25 -7 -29 -2 -67 74
-295 585 -356 1406 -154 2071 60 199 179 470 207 470 7 0 51 -18 98 -39z
m-3611 -602 c19 -7 35 -13 37 -14 1 -1 -9 -26 -22 -56 -68 -149 -91 -335 -83
-672 7 -304 21 -379 103 -573 8 -17 -80 -37 -133 -31 -114 13 -185 164 -213
454 -26 275 -1 583 61 748 22 59 78 131 114 145 30 13 97 12 136 -1z m255
-167 c43 -38 100 -94 127 -125 l47 -56 -35 -68 c-46 -89 -65 -160 -65 -253 0
-93 19 -164 65 -253 l35 -68 -47 -56 c-46 -54 -199 -193 -212 -193 -10 0 -50
110 -67 185 -25 111 -31 538 -9 686 16 110 60 269 75 269 4 0 43 -31 86 -68z
m1348 -2023 c99 -139 300 -307 455 -379 54 -25 54 -25 25 -31 -59 -13 -255 -9
-332 7 -175 36 -282 132 -282 254 0 49 62 221 79 220 3 -1 28 -32 55 -71z
m305 5 c236 -72 465 -106 723 -108 91 0 164 -4 162 -8 -19 -30 -254 -165 -364
-208 l-50 -20 -92 31 c-171 56 -308 135 -436 254 -78 73 -109 114 -76 101 11
-4 70 -23 133 -42z"/>
<path d="M4418 2646 c-94 -26 -188 -120 -188 -188 0 -62 80 -91 123 -44 12 13
32 35 45 50 13 14 40 30 59 35 37 10 89 5 99 -10 10 -17 74 -9 94 11 25 25 26
81 2 103 -49 44 -159 65 -234 43z"/>
</g>
</svg>
